# xmcd
#
# Track frame offsets:
#	150
#	14515
#	34378
#	57757
#	78707
#	93968
#	114395
#	131768
#	148004
#	164154
#
# Disc length: 2375 seconds
# Revision: 0
# Processed by: cddbd v1.5.2PL0 Copyright (c) Steve Scherf et al.
# Submitted via: dBpowerAMP V12.0
#
DISCID=8d09450a
DTITLE=Tim Carter - Wishes
DYEAR=2018
DGENRE=Bluegrass
TTITLE0=Split Lip
TTITLE1=Shivering
TTITLE2=These Wishes Are Horses
TTITLE3=Fatback
TTITLE4=Fungus Amungus
TTITLE5=Man Gave Names to All the Animals
TTITLE6=Whoa Whoa
TTITLE7=I Hear Trains in the Night
TTITLE8=LuLu
TTITLE9=A Waltz for Earl
EXTD=
EXTT0=
EXTT1=
EXTT2=
EXTT3=
EXTT4=
EXTT5=
EXTT6=
EXTT7=
EXTT8=
EXTT9=
PLAYORDER=
